<svg width="14" height="21" viewBox="0 0 14 21" fill="none" xmlns="http://www.w3.org/2000/svg">
<path d="M13.999 13.7249C13.999 14.5056 13.773 15.2395 13.321 15.9265C12.886 16.6135 12.235 17.1913 11.366 17.6597C10.515 18.1281 9.50199 18.4092 8.32599 18.5029V20.4H6.56099V18.5029C4.85999 18.3623 3.48498 17.9017 2.43498 17.121C1.38498 16.3403 0.859985 15.3098 0.859985 14.0294H4.17198C4.22698 14.6383 4.45298 15.1458 4.85098 15.5518C5.24898 15.9421 5.81899 16.192 6.56099 16.3013V11.1486C5.34899 10.8831 4.36199 10.6177 3.60199 10.3522C2.84199 10.0712 2.19098 9.634 1.64798 9.0406C1.12298 8.4473 0.859985 7.6354 0.859985 6.6048C0.859985 5.30884 1.38498 4.23926 2.43498 3.39609C3.48498 2.53731 4.85999 2.03766 6.56099 1.89713V0H8.32599V1.89713C9.91799 2.02204 11.194 2.45924 12.153 3.20872C13.131 3.94259 13.683 4.95752 13.809 6.2535H10.497C10.443 5.76946 10.226 5.34007 9.84598 4.96533C9.46598 4.57497 8.95899 4.30953 8.32599 4.169V9.228C9.53799 9.4778 10.524 9.7433 11.285 10.0243C12.045 10.2898 12.687 10.7192 13.212 11.3125C13.737 11.8902 13.999 12.6944 13.999 13.7249ZM4.00899 6.4643C4.00899 7.1045 4.22698 7.6041 4.66098 7.9633C5.11298 8.3224 5.74699 8.6112 6.56099 8.8298V4.09873C5.78299 4.17681 5.15899 4.41883 4.68799 4.8248C4.23599 5.23077 4.00899 5.77727 4.00899 6.4643ZM8.32599 16.3013C9.12199 16.192 9.74599 15.9187 10.199 15.4815C10.651 15.0287 10.877 14.49 10.877 13.8654C10.877 13.2409 10.651 12.7568 10.199 12.4133C9.76399 12.0542 9.13999 11.7653 8.32599 11.5467V16.3013Z" fill="#49AA26"/>
</svg>
